HIERARCHY
ROOT base
{
	OFFSET 0.0 0.0 0.0
	CHANNELS 6 Xposition Yposition Zposition Zrotation Yrotation Xrotation
	JOINT root
	{
		OFFSET 0 0 0
		CHANNELS 6 Xposition Yposition Zposition Zrotation Yrotation Xrotation
		JOINT chest
		{
			OFFSET 0 4.72302 0
			CHANNELS 3 Zrotation Yrotation Xrotation
			JOINT neck
			{
				OFFSET 0 4.47788 0
				CHANNELS 3 Zrotation Yrotation Xrotation
				End Site
				{
					OFFSET 0.0 0.0 0.0
				}
			}
			JOINT right_shoulder
			{
				OFFSET -0.481 4.87 3.6622
				CHANNELS 3 Zrotation Yrotation Xrotation
				JOINT right_elbow
				{
					OFFSET 0 -5.49576 0
					CHANNELS 3 Zrotation Yrotation Xrotation
					JOINT right_wrist
					{
						OFFSET 0 -5.17894 0
						CHANNELS 3 Zrotation Yrotation Xrotation
						End Site
						{
							OFFSET 0.0 0.0 0.0
						}
					}
				}
			}
			JOINT left_shoulder
			{
				OFFSET -0.481 4.87 -3.6622
				CHANNELS 3 Zrotation Yrotation Xrotation
				JOINT left_elbow
				{
					OFFSET 0 -5.49576 0
					CHANNELS 3 Zrotation Yrotation Xrotation
					JOINT left_wrist
					{
						OFFSET 0 -5.17894 0
						CHANNELS 3 Zrotation Yrotation Xrotation
						End Site
						{
							OFFSET 0.0 0.0 0.0
						}
					}
				}
			}
		}
		JOINT right_hip
		{
			OFFSET 0 0 1.69774
			CHANNELS 3 Zrotation Yrotation Xrotation
			JOINT right_knee
			{
				OFFSET 0 -8.43092 0
				CHANNELS 3 Zrotation Yrotation Xrotation
				JOINT right_ankle
				{
					OFFSET 0 -8.1974 0
					CHANNELS 3 Zrotation Yrotation Xrotation
					End Site
					{
						OFFSET 0.0 0.0 0.0
					}
				}
			}
		}
		JOINT left_hip
		{
			OFFSET 0 0 -1.69774
			CHANNELS 3 Zrotation Yrotation Xrotation
			JOINT left_knee
			{
				OFFSET 0 -8.43092 0
				CHANNELS 3 Zrotation Yrotation Xrotation
				JOINT left_ankle
				{
					OFFSET 0 -8.1974 0
					CHANNELS 3 Zrotation Yrotation Xrotation
					End Site
					{
						OFFSET 0.0 0.0 0.0
					}
				}
			}
		}
	}
	JOINT red_arrow
	{
		OFFSET 0 0 0
		CHANNELS 3 Zrotation Yrotation Xrotation
		End Site
		{
			OFFSET 0.0 0.0 0.0
		}
	}
	JOINT blue_arrow
	{
		OFFSET 0 0 0
		CHANNELS 3 Zrotation Yrotation Xrotation
		End Site
		{
			OFFSET 0.0 0.0 0.0
		}
	}
}
MOTION
Frames: 8
Frame Time: 0.0333333333333333
0 18.08466 0 0 0 0 0 0 0 0 -90 0 0 0 0 0 0 0 0 0 -90 0 0 0 0 0 0 0 0 90 0 0 0 0 0 0 0 0 0 0 0 0 0 0 0 0 0 0 0 0 0 0 0 0 0 0 0 0 0 0
0.543945559859276 0 0.0837860818952322 0 1.95868249719958 0 0 17.0260722994804 0 -7.63943484738655 -4.60931947977721E-15 1.60388725982404 -3.13318986017974 -5.52792992219054 -0.944937371062082 1.9022945593778 -0.00663470025130384 0.396667053535744 -11.3660952750671 3.00407082921579 -2.30320001360454 9.81052599264854 0 0 0 0 0 10.2355646777405 -20.4537423881067 18.8314011975821 35.9279834871827 0 0 0 0 0 30.6275404309668 -6.51317025778296 1.28110637121273 -16.3002396240463 0 0 -6.68055124860156 6.97921716001972 1.0282423879884 -3.73633489010757 6.0033423216376 -1.6783485936418 -28.6247080944981 0 0 -1.14760561506531 -3.75237428810686 1.70163887908995 0 0 0 0 0 0
1.23229169547558 0 0.132937831059098 0 1.89482906397866 0 0 17.0945018291473 0 -8.3541912613843 -1.20034536311282 0.815371972514354 -5.88930231312911 -4.96682772501284 -1.56874849369524 -1.90221610073673 -0.256776501454593 -0.133407669062245 -7.7025931957226 0.923198085285896 0.168170509923144 7.27724212666301 0 0 0 0 0 11.4760150218243 -20.3569794173483 16.309180878 33.8308148836653 0 0 0 0 0 27.1248287880743 -4.88639006594225 3.2643413198938 -13.2681496042956 0 0 -6.20792149579372 7.98835875197609 -5.35951871344292 -1.37936831379793 5.38056221554764 -0.688301172937568 -33.0312934299911 0 0 -13.6413328098863 -4.70399956835706 5.46629059091654 0 0 0 0 0 0
1.91675612330437 0 0.182621397636831 0 1.84345633073198 0 0 17.2718711495399 0 -9.00432728605345 -0.964055492805974 -0.299489088989023 -7.21397217181583 -4.9774281911913 -2.1264010567916 -2.47769810987684 -0.213872874778266 -0.0964777841348069 -5.62865209643691 1.37717216278791 -0.0422679843694534 7.56124480744673 0 0 0 0 0 11.3592103161677 -18.0732464718347 13.1702054385746 33.8907702841996 0 0 0 0 0 22.5558637412978 -3.84360640674971 4.72538744148607 -7.72551341830647 0 0 -6.47920546667682 6.69244013015135 -5.08446389075142 5.45083925748359 3.97648573111975 1.20218964825905 -43.6191555681159 0 0 -25.4512298697634 -4.11349252322332 6.88720083124804 0 0 0 0 0 0
2.7240075558424 0 0.170691494643688 0 1.81343666835986 0 0 17.4078481793404 0 -8.27976905718523 -0.564428796196114 -1.093319223704 -7.03310833776092 -4.06931664411738 -2.24161486159007 -3.03884786417456 -0.16579493890881 -0.539846038384126 -4.17001640088644 3.23195539445764 -1.65985492838627 10.2844548899091 0 0 0 0 0 9.14952774201463 -13.2669885819832 9.48171388670351 31.3841284248454 0 0 0 0 0 16.6498746291343 -2.75839318866586 5.54748078227478 -2.89118855325854 0 0 -6.01378686049467 5.51427572787526 -4.74814315953511 12.5957727950526 3.03803876134305 3.23876148835561 -57.0979191781108 0 0 -26.0253847784717 -3.64231623899985 5.62860525213845 0 0 0 0 0 0
3.52175291180611 0 0.116907286830246 0 1.79968968141851 0 0 17.4832683324814 0 -7.69811557714684 -0.258838812043184 -1.62703952562088 -5.29332002709389 -2.91837863119093 -1.7531662126176 -1.69511496568458 -0.10468884993003 -0.665230584419238 -2.59602478702016 6.47559994968333 -3.98562265263737 15.5813639214497 0 0 0 0 0 4.80680037315583 -5.92352825415074 7.17303555984315 27.8749377387383 0 0 0 0 0 12.2607741953062 -2.38309770747332 5.93261754696916 -0.788384189902242 0 0 -4.25474755481014 5.18074963863554 -4.473525201576 20.8976495503457 2.13741043098308 5.54768821965336 -70.4824091020866 0 0 -18.1119274663325 -2.94484212995463 3.9117389500895 0 0 0 0 0 0
4.34950568974018 0 0.0259325841441751 0 1.78181969973178 0 0 17.5299236774445 0 -6.31317997187626 -0.337470685576158 -1.66003479563402 -3.91398506400902 -1.85766611022248 -1.3466340113342 -0.297101609051369 -0.0650446230562021 -0.581537388271494 -0.873335677652663 9.61106011572847 -6.11507424746056 21.6521880274661 0 0 0 0 0 0.262864737653718 1.09821692000036 6.97510732002379 24.9470593302492 0 0 0 0 0 7.93060002241047 -2.85681098505038 5.75482380432805 -0.732432080634291 0 0 -1.4121759847445 6.09949371589417 -4.16941642806601 27.1230977059137 1.80360774164549 7.65528830917897 -79.0497885856004 0 0 -8.72548094439739 -2.85876406136305 3.08323148107378 0 0 0 0 0 0
5.14240029901266 0 -0.11204109787941 0 1.75145115587013 0 0 17.5504163861275 0 -4.91649145915757 -0.574879493741003 -1.22152475995315 -2.80666457030085 -1.15882544528014 -0.974263717392855 0.949929236332134 -0.0619632282201105 -0.31430653804426 0.895620888964555 14.2538558497383 -9.16431759385975 28.4968776890868 0 0 0 0 0 -2.58548261696503 6.41058572524276 7.9585226653537 21.2170964395998 0 0 0 0 0 4.38945739605948 -3.68546014127061 4.88944514649648 -2.00721864068632 0 0 1.98086507701569 7.48428194431934 -3.622665734354 31.9687624414111 1.73241835784665 8.90357379180354 -82.000915250477 0 0 -1.53921127319002 -2.95185830683125 2.55817746496432 0 0 0 0 0 0
